<svg xmlns="http://www.w3.org/2000/svg" viewBox="0 0 64 64">
  <rect x="4" y="4" width="56" height="56" rx="6" fill="#e7ddc8" stroke="#69574b" stroke-width="2"/>
  <rect x="6" y="6" width="52" height="52" rx="5" fill="#e9dfca" stroke="#c4b59a" stroke-width="1"/>
  <circle cx="52" cy="12" r="4" fill="#5aa0ff" stroke="#314a69" stroke-width="1.5"/>
  <rect x="18" y="16" width="24" height="34" fill="#b65b54" stroke="#463338" stroke-width="1.5"/>
  <rect x="16" y="14" width="28" height="4" fill="#7f726a"/>
  <rect x="20" y="50" width="20" height="3" fill="#76635b"/>
  <rect x="27" y="38" width="6" height="12" fill="#6d4d42"/>
  <rect x="21" y="21" width="4" height="6" fill="#dceff7"/>
  <rect x="29" y="21" width="4" height="6" fill="#dceff7"/>
  <rect x="37" y="21" width="4" height="6" fill="#dceff7"/>
  <rect x="21" y="30" width="4" height="6" fill="#dceff7"/>
  <rect x="29" y="30" width="4" height="6" fill="#dceff7"/>
  <rect x="37" y="30" width="4" height="6" fill="#dceff7"/>
  <rect x="21" y="39" width="4" height="6" fill="#dceff7"/>
  <rect x="37" y="39" width="4" height="6" fill="#dceff7"/>
</svg>
