<svg xmlns="http://www.w3.org/2000/svg" viewBox="0 0 64 64">
  <rect x="4" y="4" width="56" height="56" rx="6" fill="#e7ddc8" stroke="#69574b" stroke-width="2"/>
  <rect x="6" y="6" width="52" height="52" rx="5" fill="#e9dfca" stroke="#c4b59a" stroke-width="1"/>
  <circle cx="52" cy="12" r="4" fill="#5aa0ff" stroke="#314a69" stroke-width="1.5"/>
  <path d="M16 36h29l6-8c1.1-1.5.5-3.7-1.4-4.3l-12-3.8H28c-2.1 0-4 1.1-5.1 2.9L18.5 30H16c-2.2 0-4 1.8-4 4v5h3.5a5.5 5.5 0 0 0 11 0h10a5.5 5.5 0 0 0 11 0H52v-3c0-2.2-1.8-4-4-4h-1.4z" fill="#efe4d0" stroke="#3d3941" stroke-width="1.5" stroke-linejoin="round"/>
  <path d="M24 23h11l10 3.2c.9.3 1.3 1.3.8 2.1L43 32H19.8l3.4-6.2a4.6 4.6 0 0 1 4-2.8z" fill="#bccbd3" stroke="#3d3941" stroke-width="1.2"/>
  <path d="M25 24.5h10l3 5.5H22z" fill="#7d9bb0"/>
  <rect x="14" y="33" width="4" height="2" rx="1" fill="#ff9c63"/>
  <rect x="44" y="33" width="4" height="2" rx="1" fill="#ffd46c"/>
  <circle cx="21" cy="39" r="4.4" fill="#2f3440"/><circle cx="21" cy="39" r="2.2" fill="#a8abb3"/>
  <circle cx="42" cy="39" r="4.4" fill="#2f3440"/><circle cx="42" cy="39" r="2.2" fill="#a8abb3"/>
</svg>
