<svg xmlns="http://www.w3.org/2000/svg" viewBox="0 0 64 64">
  <rect x="4" y="4" width="56" height="56" rx="6" fill="#e7ddc8" stroke="#69574b" stroke-width="2"/>
  <rect x="6" y="6" width="52" height="52" rx="5" fill="#e9dfca" stroke="#c4b59a" stroke-width="1"/>
  <circle cx="52" cy="12" r="4" fill="#5aa0ff" stroke="#314a69" stroke-width="1.5"/>
  <rect x="16" y="23" width="17" height="20" rx="2" fill="#8ba3a9" stroke="#45505a" stroke-width="1.5"/>
  <rect x="14" y="20" width="21" height="4" rx="2" fill="#738991"/>
  <circle cx="20" cy="45" r="1.5" fill="#45505a"/><circle cx="29" cy="45" r="1.5" fill="#45505a"/>
  <path d="M22 29c2 3 4 4 6 0-1 3-1 5 0 7-2-2-4-2-6 0 1-2 1-4 0-7z" fill="#e5f0ea"/>
  <path d="M40 31c6-4 9 5 5 10-3 0-5 0-8 1-5-4-2-9 3-11z" fill="#6f6367"/>
  <path d="M47 29c6-3 8 6 4 10-2 0-4 0-6 1-5-3-2-8 2-11z" fill="#534852"/>
  <circle cx="18" cy="49" r="1.2" fill="#b48957"/>
</svg>
